<?xml version="1.0" encoding="UTF-8"?>
<svg width="87px" height="19px" viewBox="0 0 87 19" version="1.1" xmlns="http://www.w3.org/2000/svg" xmlns:xlink="http://www.w3.org/1999/xlink">
    <!-- Generator: Sketch 53.2 (72643) - https://sketchapp.com -->
    <title>Group 24</title>
    <desc>Created with Sketch.</desc>
    <defs>
        <polygon id="path-1" points="0.884120493 0.821 10.183525 0.821 10.183525 18.9976868 0.884120493 18.9976868"></polygon>
        <polygon id="path-3" points="0.116042814 0.210919549 9.41787168 0.210919549 9.41787168 9 0.116042814 9"></polygon>
        <polygon id="path-5" points="0.6677 0.256124202 7.644 0.256124202 7.644 8.81638762 0.6677 8.81638762"></polygon>
    </defs>
    <g id="Page-1" stroke="none" stroke-width="1" fill="none" fill-rule="evenodd">
        <g id="Detalle-patinete" transform="translate(-144.000000, -47.000000)">
            <g id="Group-24" transform="translate(144.000000, 46.000000)">
                <g id="Group-3" transform="translate(35.000000, 0.179100)">
                    <mask id="mask-2" fill="white">
                        <use xlink:href="#path-1"></use>
                    </mask>
                    <g id="Clip-2"></g>
                    <path d="M5.538,12.6682 C4.35,12.6672 3.647,13.3812 3.644,14.5922 C3.642,15.8212 4.346,16.5442 5.542,16.5422 C6.712,16.5402 7.434,15.7992 7.433,14.6032 C7.431,13.4052 6.71,12.6682 5.538,12.6682 M7.299,3.3892 L7.299,10.4252 C7.762,10.7082 8.231,10.9302 8.624,11.2472 C9.819,12.2122 10.286,13.5062 10.165,15.0132 C9.979,17.3442 8.147,18.8952 5.782,18.9922 C4.438,19.0462 3.212,18.7062 2.209,17.7682 C1.253,16.8752 0.853,15.7452 0.886,14.4512 C0.936,12.4672 2.203,10.9222 4.096,10.3972 C4.139,10.3842 4.182,10.3692 4.239,10.3502 L4.239,3.3902 C3.767,3.3902 3.304,3.4012 2.842,3.3872 C1.952,3.3602 1.358,2.5072 1.645,1.6802 C1.821,1.1762 2.295,0.8252 2.838,0.8242 C4.786,0.8202 6.733,0.8192 8.681,0.8242 C9.386,0.8262 9.943,1.3822 9.96,2.0792 C9.978,2.7742 9.422,3.3622 8.703,3.3862 C8.24,3.4022 7.776,3.3892 7.299,3.3892" id="Fill-1" fill="#D9DD19" mask="url(#mask-2)"></path>
                </g>
                <path d="M35.538,18.9679 C34.484,18.9679 33.488,18.9729 32.493,18.9589 C32.403,18.9579 32.288,18.8519 32.229,18.7649 C31.418,17.5599 30.615,16.3499 29.809,15.1419 C29.754,15.0599 29.694,14.9799 29.594,14.8389 L29.594,18.9509 L27.079,18.9509 L27.079,6.3029 L29.576,6.3029 L29.576,13.9379 C29.609,13.9659 29.642,13.9919 29.675,14.0199 C29.708,13.9479 29.728,13.8659 29.777,13.8089 C30.585,12.8689 31.4,11.9359 32.205,10.9939 C32.319,10.8609 32.432,10.8059 32.608,10.8069 C33.53,10.8159 34.452,10.8109 35.46,10.8109 C34.355,12.0659 33.292,13.2739 32.219,14.4919 C33.319,15.9759 34.41,17.4469 35.538,18.9679" id="Fill-4" fill="#FE2548"></path>
                <g id="Group-8" transform="translate(46.000000, 10.179100)">
                    <mask id="mask-4" fill="white">
                        <use xlink:href="#path-3"></use>
                    </mask>
                    <g id="Clip-7"></g>
                    <path d="M4.7821,2.6682 C3.5941,2.6652 2.8851,3.3792 2.8801,4.5842 C2.8741,5.8112 3.5791,6.5422 4.7691,6.5422 C5.9521,6.5422 6.6781,5.7932 6.6691,4.5832 C6.6601,3.4012 5.9401,2.6712 4.7821,2.6682 M0.1161,4.8042 C0.1051,2.3752 1.6821,0.5702 3.9071,0.2742 C5.3391,0.0842 6.6821,0.3002 7.8351,1.2212 C9.0601,2.2012 9.5261,3.5172 9.3971,5.0572 C9.2121,7.2692 7.4441,8.9052 4.9781,8.9962 C4.1851,9.0242 3.4141,8.9112 2.6921,8.5822 C0.9941,7.8082 0.1721,6.4562 0.1161,4.8042" id="Fill-6" fill="#D9DD19" mask="url(#mask-4)"></path>
                </g>
                <path d="M65.9769,13.7609 L69.2789,13.7609 C69.2309,12.8639 68.6199,12.2639 67.7719,12.2479 C66.7989,12.2299 66.0559,12.8519 65.9769,13.7609 M71.8489,15.4939 L66.0209,15.4939 C65.9779,15.9909 66.4419,16.6369 67.0159,16.9019 C67.8919,17.3069 68.6879,17.0689 69.6689,16.0999 C70.2429,16.5209 70.8179,16.9419 71.4379,17.3969 C71.1819,17.6379 70.9629,17.8779 70.7099,18.0749 C68.7789,19.5729 65.7029,19.1889 64.2639,17.2839 C62.6269,15.1189 63.3139,11.1609 67.0679,10.5119 C67.7629,10.3919 68.4619,10.3899 69.1439,10.5939 C70.6259,11.0369 71.4019,12.1109 71.6849,13.5649 C71.8039,14.1789 71.7959,14.8189 71.8489,15.4939" id="Fill-9" fill="#FE2548"></path>
                <path d="M2.5433,13.7824 L5.8133,13.7824 C5.9103,13.0214 5.2813,12.3244 4.4463,12.2524 C3.4563,12.1664 2.6033,12.8394 2.5433,13.7824 M8.4093,15.4944 L2.5883,15.4944 C2.5563,16.0024 3.0033,16.6644 3.5863,16.8964 C4.6583,17.3224 5.5313,16.9994 6.2203,16.0864 C6.8123,16.5214 7.3873,16.9424 7.9813,17.3784 C7.5273,17.9614 6.9683,18.3594 6.3133,18.6324 C4.4683,19.4034 2.1783,18.8884 0.9683,17.4594 C-0.7887,15.3834 -0.2487,11.3864 3.3653,10.5674 C4.2043,10.3764 5.0513,10.3604 5.8743,10.6454 C7.3113,11.1424 8.0253,12.2424 8.2733,13.6754 C8.3753,14.2574 8.3653,14.8574 8.4093,15.4944" id="Fill-11" fill="#FE2548"></path>
                <path d="M12.1854,10.6452 L12.1854,10.9722 C12.1904,12.3882 12.1934,13.8052 12.2014,15.2212 C12.2014,15.3412 12.2144,15.4632 12.2354,15.5822 C12.3884,16.4492 12.7694,16.7882 13.5704,16.7712 C14.3364,16.7552 14.8354,16.2962 14.9364,15.4962 C14.9724,15.2092 14.9914,14.9202 14.9924,14.6322 C14.9984,13.4112 14.9954,12.1902 14.9954,10.9702 L14.9954,10.6492 L17.5004,10.6492 L17.5004,18.7702 L15.1084,18.7702 L15.1084,17.7592 C15.0774,17.7372 15.0454,17.7152 15.0144,17.6932 C15.0014,17.7372 15.0004,17.7892 14.9764,17.8242 C14.4634,18.5882 13.7164,18.9442 12.8254,18.9832 C12.4214,19.0012 12.0014,18.9582 11.6084,18.8642 C10.5254,18.6052 9.8684,17.7592 9.7474,16.4892 C9.6894,15.8782 9.6684,15.2622 9.6624,14.6482 C9.6494,13.4182 9.6584,12.1882 9.6584,10.9582 L9.6584,10.6452 L12.1854,10.6452 Z" id="Fill-13" fill="#FE2548"></path>
                <path d="M62.413,16.7643 L62.413,18.7543 C62.178,18.8093 61.939,18.8813 61.696,18.9183 C60.991,19.0263 60.285,19.0333 59.584,18.8843 C58.363,18.6243 57.688,17.8023 57.682,16.5513 C57.675,15.3683 57.68,14.1843 57.68,13.0003 L57.68,12.6653 L56.092,12.6653 L56.092,10.6363 L57.679,10.6363 L57.679,8.2333 L60.192,8.2333 L60.192,10.6223 L62.402,10.6223 L62.402,12.6513 L60.249,12.6513 C60.232,12.7153 60.21,12.7583 60.21,12.8013 C60.217,13.8263 60.211,14.8513 60.238,15.8753 C60.254,16.5043 60.532,16.8113 61.157,16.8533 C61.564,16.8803 61.978,16.7993 62.413,16.7643" id="Fill-15" fill="#FE2548"></path>
                <g id="Group-19" transform="translate(79.000000, 10.179100)">
                    <mask id="mask-6" fill="white">
                        <use xlink:href="#path-5"></use>
                    </mask>
                    <g id="Clip-18"></g>
                    <path d="M7.2777,1.2971 C6.7687,1.8241 6.2787,2.3321 5.7727,2.8571 C5.3797,2.4001 4.8937,2.1541 4.3007,2.1811 C4.1017,2.1901 3.8997,2.2521 3.7107,2.3221 C3.4857,2.4051 3.3907,2.6001 3.3887,2.8321 C3.3857,3.0661 3.5167,3.2281 3.7297,3.2911 C4.2727,3.4501 4.8237,3.5841 5.3677,3.7411 C5.6967,3.8361 6.0277,3.9361 6.3417,4.0701 C8.0447,4.7961 7.9387,7.0801 6.8257,7.9611 C6.2167,8.4431 5.5217,8.6591 4.7737,8.7581 C3.8567,8.8791 2.9517,8.8131 2.0657,8.5471 C1.5397,8.3891 1.0767,8.1251 0.6677,7.7021 C1.1737,7.1401 1.6737,6.5841 2.1887,6.0141 C2.5427,6.4061 2.9177,6.7661 3.4397,6.8251 C3.8467,6.8711 4.2697,6.8311 4.6807,6.7891 C4.9147,6.7641 5.0937,6.6101 5.1097,6.3451 C5.1257,6.0751 4.9787,5.8951 4.7397,5.8141 C4.3617,5.6861 3.9757,5.5821 3.5917,5.4741 C3.1807,5.3581 2.7557,5.2821 2.3587,5.1301 C0.8777,4.5611 0.3807,2.8751 1.2887,1.5631 C1.7947,0.8331 2.5347,0.4911 3.3747,0.3411 C4.2987,0.1771 5.2117,0.2521 6.1027,0.5521 C6.5597,0.7061 6.9577,0.9561 7.2777,1.2971" id="Fill-17" fill="#FE2548" mask="url(#mask-6)"></path>
                </g>
                <path d="M25.4935,11.4464 C25.4055,11.5504 25.3835,11.5794 25.3585,11.6054 C24.8945,12.0904 24.4305,12.5734 23.9485,13.0764 C23.5145,12.5754 23.0195,12.3284 22.4145,12.3604 C22.2245,12.3694 22.0315,12.4294 21.8525,12.4994 C21.6325,12.5854 21.5335,12.7674 21.5315,13.0084 C21.5295,13.2484 21.6545,13.4064 21.8665,13.4694 C22.4085,13.6304 22.9595,13.7644 23.5035,13.9194 C23.8065,14.0054 24.1125,14.0914 24.4045,14.2094 C26.2215,14.9464 26.1345,17.3694 24.7895,18.2774 C24.2175,18.6624 23.5845,18.8484 22.9135,18.9364 C21.9965,19.0564 21.0925,18.9924 20.2055,18.7264 C19.6725,18.5664 19.2015,18.2994 18.8065,17.8784 C19.3165,17.3134 19.8145,16.7614 20.3275,16.1924 C20.6825,16.5924 21.0675,16.9544 21.5975,17.0084 C22.0135,17.0514 22.4435,16.9974 22.8635,16.9504 C23.0815,16.9264 23.2265,16.7674 23.2435,16.5294 C23.2595,16.2884 23.1545,16.0914 22.9315,16.0194 C22.3845,15.8444 21.8265,15.7024 21.2735,15.5444 C20.9965,15.4654 20.7145,15.3984 20.4485,15.2914 C19.1445,14.7654 18.8645,13.8254 19.0565,12.6684 C19.2425,11.5514 20.0155,10.9334 21.0495,10.6334 C22.1645,10.3094 23.2845,10.3664 24.3635,10.7894 C24.7525,10.9424 25.0955,11.2114 25.4935,11.4464" id="Fill-20" fill="#FE2548"></path>
                <path d="M79.056,10.6916 L79.056,12.9246 C78.574,12.9006 78.101,12.8346 77.635,12.8616 C76.558,12.9256 75.95,13.5196 75.904,14.5986 C75.848,15.8816 75.859,17.1676 75.841,18.4516 C75.839,18.6096 75.841,18.7676 75.841,18.9466 L73.342,18.9466 L73.342,10.8286 L75.836,10.8286 L75.836,12.0536 C76.223,11.5416 76.593,11.0366 77.209,10.7956 C77.812,10.5606 78.426,10.5926 79.056,10.6916" id="Fill-22" fill="#FE2548"></path>
            </g>
        </g>
    </g>
</svg>